<?xml version="1.0" standalone="no"?>
<!DOCTYPE svg PUBLIC "-//W3C//DTD SVG 20010904//EN"
 "http://www.w3.org/TR/2001/REC-SVG-20010904/DTD/svg10.dtd">
<svg version="1.0" xmlns="http://www.w3.org/2000/svg"
 width="2048.000000pt" height="2048.000000pt" viewBox="0 0 2048.000000 2048.000000"
 preserveAspectRatio="xMidYMid meet">
<metadata>
Created by potrace 1.11, written by Peter Selinger 2001-2013
</metadata>
<g transform="translate(0.000000,2048.000000) scale(0.100000,-0.100000)"
fill="#000000" stroke="none">
<path d="M12033 18851 c-6 -14 -21 -55 -33 -91 -12 -36 -58 -168 -102 -295
-44 -126 -99 -286 -123 -355 -24 -69 -84 -244 -135 -390 -51 -146 -121 -350
-158 -455 -36 -104 -75 -219 -88 -255 -37 -105 -195 -563 -204 -590 -5 -14
-40 -117 -80 -230 -39 -113 -80 -230 -90 -260 -10 -30 -48 -140 -85 -245 -37
-104 -72 -208 -80 -230 -12 -36 -65 -189 -219 -635 -91 -260 -236 -680 -271
-780 -103 -301 -122 -356 -127 -370 -2 -8 -48 105 -102 250 -54 146 -109 292
-121 325 -13 33 -89 238 -169 455 -163 439 -214 575 -226 605 -9 21 -191 512
-392 1055 -66 179 -123 334 -128 345 -9 20 -23 58 -120 320 -28 77 -62 167
-75 200 -29 76 -86 229 -118 320 -14 39 -30 81 -36 95 -6 14 -67 178 -136 365
-69 187 -132 356 -140 375 -7 19 -39 105 -70 190 -32 85 -63 169 -70 185 -7
17 -19 49 -26 73 -7 23 -17 42 -23 42 -6 0 -40 -11 -76 -24 -36 -14 -189 -70
-340 -126 -151 -56 -284 -106 -295 -111 -11 -5 -65 -25 -120 -44 -55 -20 -109
-39 -120 -44 -29 -13 -428 -162 -440 -165 -5 -1 -53 -18 -105 -38 -52 -20
-174 -65 -270 -101 -546 -204 -788 -294 -985 -366 -121 -45 -236 -88 -255 -96
-19 -7 -71 -27 -115 -44 -179 -68 -341 -132 -357 -141 -10 -6 -23 -10 -29 -10
-6 0 -25 -6 -42 -14 -18 -8 -95 -40 -172 -71 -445 -181 -887 -379 -1270 -572
-219 -110 -232 -117 -343 -180 -52 -29 -95 -53 -96 -53 -6 0 -171 -96 -266
-155 -122 -75 -319 -209 -416 -283 -42 -31 -89 -66 -105 -78 -113 -82 -413
-361 -550 -511 -149 -163 -335 -403 -463 -600 -221 -338 -448 -812 -569 -1188
-67 -206 -77 -240 -102 -345 -22 -89 -36 -148 -40 -160 -1 -3 -5 -25 -9 -50
-5 -25 -10 -54 -12 -65 -11 -58 -24 -135 -29 -170 -4 -22 -8 -51 -10 -65 -3
-14 -7 -50 -10 -80 -3 -30 -8 -69 -10 -85 -24 -181 -25 -763 -1 -916 3 -13 7
-53 10 -89 6 -54 23 -174 52 -345 10 -60 46 -223 75 -340 150 -594 414 -1211
732 -1712 230 -362 528 -714 822 -972 61 -52 112 -98 115 -102 13 -16 266
-203 345 -256 150 -100 202 -133 209 -133 3 0 23 -11 44 -23 91 -58 326 -178
460 -236 329 -143 772 -282 1067 -335 17 -3 40 -8 51 -10 12 -2 39 -7 60 -10
22 -4 46 -8 54 -11 13 -4 260 -36 385 -50 185 -21 783 -28 990 -12 168 13 247
21 335 32 19 3 58 7 85 10 28 3 77 10 110 15 33 5 78 11 100 15 22 3 66 10 97
16 32 5 70 12 85 15 93 16 386 78 429 90 28 8 60 16 70 18 190 38 788 222
1073 330 52 20 96 34 98 32 3 -2 -7 -40 -22 -83 -15 -43 -61 -175 -102 -293
-41 -118 -81 -233 -88 -255 -7 -22 -45 -132 -85 -245 -39 -113 -95 -275 -125
-360 -29 -85 -95 -274 -145 -420 -51 -146 -112 -321 -135 -390 -58 -167 -186
-535 -279 -805 -42 -121 -90 -260 -107 -310 -16 -49 -33 -97 -36 -105 -4 -8
-7 -18 -8 -22 -2 -5 -4 -10 -5 -13 -1 -3 -3 -8 -5 -12 -1 -5 -4 -15 -8 -23 -3
-8 -17 -49 -31 -90 -14 -41 -52 -154 -86 -250 -34 -96 -76 -220 -95 -275 -19
-55 -48 -140 -66 -190 -17 -49 -53 -153 -79 -230 -27 -77 -65 -187 -85 -245
-21 -58 -70 -199 -110 -315 -40 -115 -89 -259 -110 -318 -20 -59 -35 -110 -32
-113 2 -3 56 -22 118 -44 138 -47 520 -179 839 -290 387 -135 463 -161 505
-175 22 -7 139 -47 260 -90 121 -42 238 -83 260 -90 36 -12 402 -139 532 -185
l52 -19 15 42 c9 23 22 62 31 87 49 143 164 476 235 680 45 129 88 253 95 275
7 22 41 119 75 215 33 96 79 229 101 295 22 66 45 129 50 140 5 11 13 34 18
50 5 17 48 143 96 280 135 387 254 733 280 810 13 39 49 142 80 230 57 165
123 355 241 698 46 131 71 191 75 180 4 -10 71 -189 148 -398 78 -209 148
-396 156 -415 8 -19 82 -219 166 -445 157 -426 205 -556 219 -590 5 -11 20
-54 35 -95 34 -98 55 -151 66 -172 5 -10 9 -23 9 -29 0 -6 6 -25 14 -42 8 -18
31 -77 50 -132 20 -55 40 -109 45 -120 5 -11 17 -45 29 -75 32 -88 56 -154
120 -325 69 -184 125 -335 247 -665 101 -272 147 -393 152 -399 2 -3 40 10 86
27 45 17 217 81 382 142 165 61 316 117 335 125 48 19 811 303 880 327 30 11
64 23 75 28 52 21 115 44 295 110 183 67 247 91 295 111 11 4 61 23 111 41 88
31 91 33 84 58 -5 14 -49 135 -100 270 -50 135 -122 328 -160 430 -38 102 -94
253 -125 335 -31 83 -58 155 -59 160 -2 6 -7 21 -13 35 -6 14 -29 75 -51 135
-23 61 -91 245 -152 410 -62 165 -128 343 -147 395 -31 85 -170 459 -305 820
-28 74 -61 162 -73 195 -26 67 -39 101 -84 230 -18 50 -36 99 -41 110 -5 11
-23 58 -40 105 -17 47 -35 94 -40 105 -4 11 -13 36 -20 55 -7 19 -16 44 -20
55 -4 11 -18 47 -30 80 -12 33 -26 69 -31 80 -5 11 -31 83 -59 160 -28 77 -54
149 -59 160 -5 11 -21 52 -35 90 -20 56 -253 683 -287 772 -7 19 5 17 159 -34
92 -30 176 -58 187 -63 88 -35 725 -202 895 -234 14 -3 81 -16 150 -30 69 -13
143 -28 165 -31 163 -26 273 -42 350 -51 33 -3 67 -8 76 -9 9 -2 52 -6 95 -10
43 -4 90 -8 104 -11 187 -30 936 -24 1210 10 180 23 301 40 385 56 55 11 116
22 135 25 19 3 53 10 75 16 22 5 51 12 65 15 14 2 77 19 140 35 63 17 122 32
130 34 35 9 293 95 382 129 267 100 670 295 798 386 15 11 31 20 34 20 10 0
218 142 321 219 440 328 829 757 1130 1245 34 56 73 121 87 146 14 25 35 63
48 85 13 22 53 101 91 175 61 122 82 167 147 310 23 51 103 258 155 400 44
119 128 392 162 529 38 152 77 333 91 425 3 21 8 48 10 60 2 11 7 41 10 66 3
25 7 55 9 68 2 13 7 53 10 90 4 37 8 78 11 92 24 149 24 701 -1 920 -20 174
-23 193 -46 320 -11 63 -23 129 -26 145 -23 140 -166 632 -218 750 -8 17 -37
86 -65 155 -246 594 -596 1125 -1020 1550 -233 234 -317 308 -535 472 -177
133 -452 307 -680 433 -174 95 -609 311 -793 392 -31 14 -75 33 -97 43 -67 30
-397 170 -401 170 -2 0 -23 9 -47 19 -57 26 -465 186 -662 259 -267 100 -528
192 -1285 454 -80 27 -183 63 -230 80 -47 16 -96 33 -110 38 -14 5 -92 32
-175 60 -82 28 -159 55 -170 60 -11 5 -67 24 -125 44 -58 19 -190 65 -295 101
-104 37 -208 73 -230 80 -22 7 -101 34 -175 60 -74 26 -205 71 -290 100 -85
29 -232 80 -326 113 l-170 60 -11 -27z m2052 -3236 c373 -130 508 -176 555
-191 25 -8 54 -18 65 -23 11 -6 67 -26 125 -47 105 -36 412 -157 493 -193 23
-11 89 -40 147 -66 411 -184 857 -445 1130 -662 555 -440 898 -959 989 -1498
6 -33 13 -73 15 -90 23 -132 24 -494 1 -613 -1 -9 -6 -37 -9 -62 -9 -57 -33
-184 -50 -258 -56 -247 -214 -645 -353 -886 -196 -341 -459 -628 -743 -811
-41 -26 -86 -55 -100 -64 -84 -54 -267 -136 -413 -185 -296 -99 -571 -140
-942 -140 -157 0 -412 11 -425 19 -3 1 -35 5 -72 9 -172 15 -619 98 -788 146
-19 5 -116 32 -215 60 -148 42 -806 257 -895 293 -14 6 -29 11 -35 12 -5 2
-48 17 -95 34 -47 17 -94 33 -105 36 -22 5 -266 90 -303 106 -17 7 -22 14 -17
27 10 25 243 695 277 797 11 33 22 67 25 75 49 136 87 244 98 280 7 25 25 79
40 120 35 98 159 454 191 550 14 41 29 84 34 95 5 11 21 56 35 100 31 91 171
496 216 625 17 47 39 110 49 140 44 130 120 350 142 410 14 36 26 70 27 75 2
6 5 15 7 20 1 6 15 44 29 85 15 41 28 82 30 90 2 8 20 60 40 115 20 55 49 138
64 185 16 47 50 146 76 220 26 74 67 191 90 260 48 138 96 276 210 605 43 121
79 229 82 240 9 31 25 47 42 42 9 -3 115 -39 236 -82z m-7414 -195 c48 -129
88 -235 88 -235 -1 0 4 -11 9 -25 5 -14 21 -56 35 -95 94 -256 309 -833 317
-850 5 -11 12 -31 15 -45 4 -14 13 -38 20 -55 16 -36 27 -66 31 -80 3 -13 80
-218 99 -265 7 -19 62 -165 120 -325 59 -159 111 -299 116 -310 5 -11 31 -83
59 -160 28 -77 54 -149 59 -160 5 -11 18 -45 29 -75 11 -30 37 -100 57 -155
38 -103 61 -165 76 -200 4 -11 24 -63 43 -115 33 -91 67 -183 351 -945 258
-694 288 -775 284 -778 -2 -2 -105 -41 -229 -87 -124 -45 -340 -126 -480 -178
-507 -189 -799 -285 -1075 -354 -44 -11 -87 -22 -95 -24 -18 -4 -137 -31 -171
-38 -13 -3 -35 -7 -49 -10 -14 -3 -74 -15 -135 -26 -60 -11 -119 -22 -130 -24
-11 -2 -69 -9 -130 -16 -60 -6 -121 -13 -135 -16 -49 -8 -267 -18 -395 -18
-196 0 -413 18 -535 44 -25 5 -61 12 -80 15 -100 16 -313 81 -435 132 -352
148 -603 338 -879 663 -137 163 -298 436 -413 704 -66 154 -163 443 -187 556
-19 87 -36 177 -41 213 -3 23 -8 49 -10 57 -8 31 -17 179 -20 305 -7 471 139
914 433 1315 30 41 58 77 61 80 3 3 24 28 46 55 98 124 288 308 490 474 177
145 497 351 790 508 151 80 458 230 490 239 6 1 80 33 165 69 85 36 164 70
175 74 11 5 34 14 50 21 30 12 399 150 465 174 150 55 429 158 445 166 35 17
100 39 109 36 4 -1 48 -107 97 -236z"/>
</g>
</svg>
